<!-- Copyright © 2015 MODULUS Sp. z o. o. / FUTURAMO™ --><svg xmlns="http://www.w3.org/2000/svg" x="0px" y="0px" width="32px" height="32px" viewBox="0 0 32 32"><path  fill="#39b506" d="M24,8H8V6h16V8z M6,14H4v2h2V14z M4,20h2v-2H4V20z M24,10H8v2h16V10z M6,10H4v2h2V10z M20,14H8v2h12V14z  M6,6H4v2h2V6z M8,20h10v-2H8V20z M0,0v32h13.999v-1.999H2v-28h24v10h2V0H0z M30,15.873l-1.732-1 c-0.918-0.533-2.01-0.676-3.035-0.398c-1.023,0.272-1.898,0.943-2.428,1.861l-2,3.465l1.732,1l2-3.465 c0.266-0.459,0.699-0.793,1.215-0.931c0.512-0.138,1.057-0.067,1.516,0.2L29,17.606c0.957,0.552,1.283,1.773,0.732,2.729l-2,3.465 l1.73,0.998l2-3.463c0.531-0.918,0.676-2.01,0.4-3.035C31.588,17.278,30.918,16.403,30,15.873 M27.002,21.066l-1.734-1l-3,5.197 l1.734,1L27.002,21.066z M24.732,28.996c-0.553,0.957-1.777,1.283-2.73,0.731l-1.734-1c-0.957-0.549-1.281-1.775-0.731-2.731 l2-3.465l-1.732-1l-2,3.465c-1.104,1.914-0.451,4.359,1.463,5.466l1.734,1c1.912,1.103,4.355,0.446,5.461-1.466l2-3.465l-1.73-1 L24.732,28.996z M21.123,25.976L21.123,25.976C21.147,25.822,21.141,25.858,21.123,25.976"></path></svg>