<!-- Copyright © 2015 MODULUS Sp. z o. o. / FUTURAMO™ --><svg xmlns="http://www.w3.org/2000/svg" x="0px" y="0px" width="32px" height="32px" viewBox="0 0 32 32"><path  fill="#39B506" d="M4,16h24v2H4V16z M30,14.482V22h-9l-5,6.666L11,22H2V2h15.518c0.506-0.757,1.125-1.43,1.832-2H0v24h10l6,8 l6-8h10V12.651C31.43,13.357,30.756,13.977,30,14.482z M16,4H4v2h12V4z M4,10h12V8H4V10z M4,14h14v-2H4V14z M32,7 c0,3.866-3.133,7-7,7c-3.866,0-7-3.134-7-7c0-3.865,3.134-7,7-7C28.867,0,32,3.135,32,7z M29.9,5.414L28.486,4l-4.244,4.242 l-2.828-2.828L20,6.828l4.242,4.243L29.9,5.414z"></path></svg>