<!-- Copyright © 2015 MODULUS Sp. z o. o. / FUTURAMO™ --><svg xmlns="http://www.w3.org/2000/svg" width="32" height="32"><path fill="#39B506" d="M32 12.651V24H22l-6 8-6-8H0V0h19.35a8.983 8.983 0 0 0-1.832 2H2v20h9l5 6.666L21 22h9v-7.518a9 9 0 0 0 2-1.831zM32 7a7 7 0 1 1-14 0 7 7 0 0 1 14 0zm-6 3h-2v2h2v-2zm2.03-6.881c-.346-.53-1.196-1.419-2.983-1.419-2.584 0-3.547 2.001-3.547 3.263V6h2V4.992c.018-.388.203-1.292 1.547-1.292.444 0 1.053.075 1.31.515C27.344 5.906 23.938 6.5 24 8.128V9h2s-.094-1 .375-1.406c.49-.425 1.575-.953 1.933-1.771.362-.832.253-1.893-.278-2.704zM16 4H4v2h12V4zm0 4H4v2h12V8zm2 4H4v2h14v-2zm10 4H4v2h24v-2z"/></svg>