<!-- Copyright © 2015 MODULUS Sp. z o. o. / FUTURAMO™ --><svg xmlns="http://www.w3.org/2000/svg" x="0px" y="0px" width="32px" height="32px" viewBox="0 0 32 32"><path  fill="#39B506" d="M32,12.651V24H22l-6,8l-6-8H0V0h19.35c-0.707,0.57-1.326,1.243-1.832,2H2v20h9l5,6.666L21,22h9v-7.518 C30.756,13.977,31.43,13.357,32,12.651z M16,4H4v2h12V4z M4,14h14v-2H4V14z M4,10h12V8H4V10z M4,18h24v-2H4V18z M32,7 c0,3.866-3.134,7-7,7s-7-3.134-7-7s3.134-7,7-7S32,3.134,32,7z M26,10h-2v2h2V10z M26,2h-2v6h2V2z"></path></svg>