<!-- Copyright © 2015 MODULUS Sp. z o. o. / FUTURAMO™ --><svg xmlns="http://www.w3.org/2000/svg" width="64" height="64" viewBox="0 0 32 32"><path fill="#39B506" d="M20.312 14.722c2.214-1.423 3.69-3.894 3.69-6.722a8 8 0 1 0-16 0c0 2.827 1.475 5.298 3.688 6.721-3.218 1.056-6.033 3.235-7.777 6.213C1.877 24.409 2.001 28.13 2.001 32h27.996c0-3.684.148-7.254-1.659-10.617-1.717-3.197-4.647-5.55-8.026-6.661zM10.001 8c0-3.308 2.692-6 6-6s6 2.692 6 6-2.692 6-6 6-6-2.692-6-6zM4.002 30c.019-2.974.202-5.607 1.636-8.056A12.056 12.056 0 0 1 15.999 16c4.36 0 8.512 2.484 10.577 6.33 1.261 2.348 1.411 4.847 1.423 7.67H4.002z"/></svg>