<!-- Copyright © 2015 MODULUS Sp. z o. o. / FUTURAMO™ --><svg xmlns="http://www.w3.org/2000/svg" x="0px" y="0px" width="32px" height="32px" viewBox="0 0 32 32"><path  fill="#39B506" d="M28,18H10v-2h18V18z M18,22h10v-2H18V22z M28,12H10v2h18V12z M6,0v14h2V2h2h12v8h8v20H18v2h14V8l-8-8H6z  M13,21c-0.902,0-1.701,0.406-2.251,1.036l-4.817-2.408C5.975,19.425,6,19.216,6,19c0-1.657-1.343-3-3-3s-3,1.343-3,3s1.343,3,3,3 c0.902,0,1.701-0.406,2.251-1.036l4.817,2.408C10.025,23.575,10,23.784,10,24s0.025,0.425,0.068,0.628l-4.817,2.408 C4.701,26.406,3.902,26,3,26c-1.657,0-3,1.343-3,3s1.343,3,3,3s3-1.343,3-3c0-0.216-0.025-0.425-0.068-0.628l4.817-2.408 C11.299,26.594,12.098,27,13,27c1.657,0,3-1.343,3-3S14.657,21,13,21z"></path></svg>