<!-- Copyright © 2015 MODULUS Sp. z o. o. / FUTURAMO™ --><svg xmlns="http://www.w3.org/2000/svg" x="0px" y="0px" width="64px" height="64px" viewBox="0 0 32 32"><path  fill="#39B506" d="M20.312,14.722c2.214-1.423,3.69-3.894,3.69-6.722c0-4.418-3.581-8-8-8c-4.418,0-8,3.582-8,8 c0,2.827,1.475,5.298,3.688,6.721c-3.218,1.056-6.033,3.235-7.777,6.213C1.877,24.409,2.001,28.13,2.001,32h27.996 c0-3.684,0.148-7.254-1.659-10.617C26.621,18.186,23.691,15.833,20.312,14.722z M10.001,8c0-3.308,2.692-6,6-6c3.308,0,6,2.692,6,6 c0,3.308-2.692,6-6,6C12.693,14,10.001,11.308,10.001,8z M4.002,30c0.019-2.974,0.202-5.607,1.636-8.056 C7.786,18.278,11.756,16,15.999,16c4.36,0,8.512,2.484,10.577,6.33c1.261,2.348,1.411,4.847,1.423,7.67H4.002z"></path></svg>