<!-- Copyright © 2015 MODULUS Sp. z o. o. / FUTURAMO™ --><svg xmlns="http://www.w3.org/2000/svg" width="32" height="32"><path fill="#39B506" d="M28 18H10v-2h18v2zm-10 4h10v-2H18v2zm10-10H10v2h18v-2zM6 0v14h2V2h14v8h8v20H18v2h14V8l-8-8H6zm7 21c-.902 0-1.701.406-2.251 1.036l-4.817-2.408A3 3 0 1 0 3 22c.902 0 1.701-.406 2.251-1.036l4.817 2.408c-.043.203-.068.412-.068.628s.025.425.068.628l-4.817 2.408A2.979 2.979 0 0 0 3 26a3 3 0 1 0 2.932 2.372l4.817-2.408A2.979 2.979 0 0 0 13 27a3 3 0 1 0 0-6z"/></svg>