<!-- Copyright © 2015 MODULUS Sp. z o. o. / FUTURAMO™ --><svg xmlns="http://www.w3.org/2000/svg" x="0px" y="0px" width="32px" height="32px" viewBox="0 0 32 32"><path  fill="#39B506" d="M32,12.651V24H22l-6,8l-6-8H0V0h19.35c-0.707,0.57-1.326,1.243-1.832,2H2v20h9l5,6.666L21,22h9v-7.518 C30.756,13.977,31.43,13.357,32,12.651z M32,7c0,3.866-3.134,7-7,7s-7-3.134-7-7s3.134-7,7-7S32,3.134,32,7z M26,10h-2v2h2V10z  M28.03,3.119C27.684,2.589,26.834,1.7,25.047,1.7c-2.584,0-3.547,2.001-3.547,3.263V6h2V4.992C23.518,4.604,23.703,3.7,25.047,3.7 c0.444,0,1.053,0.075,1.31,0.515C27.344,5.906,23.938,6.5,24,8.128V9h2c0,0-0.094-1,0.375-1.406c0.49-0.425,1.575-0.953,1.933-1.771 C28.67,4.991,28.561,3.93,28.03,3.119z M16,4H4v2h12V4z M16,8H4v2h12V8z M18,12H4v2h14V12z M28,16H4v2h24V16z"></path></svg>