<?xml version="1.0" encoding="utf-8"?><svg xmlns="http://www.w3.org/2000/svg" width="16" height="16"><path fill="#5ba34f" d="M 2.133 6 L 3.2 6 L 3.2 7 L 2.133 7 L 2.133 6 Z M 2.133 9 L 3.2 9 L 3.2 8 L 2.133 8 L 2.133 9 Z M 4.267 7 L 11.733 7 L 11.733 6 L 4.267 6 L 4.267 7 Z M 4.267 9 L 10.667 9 L 10.667 8 L 4.267 8 L 4.267 9 Z M 2.133 10.999 L 3.2 10.999 L 3.2 10 L 2.133 10 L 2.133 10.999 Z M 4.267 10.999 L 8.533 10.999 L 8.533 10 L 4.267 10 L 4.267 10.999 Z M 13.421 11.304 L 12.267 9 L 11.113 11.304 L 8.533 11.674 L 10.4 13.467 L 9.959 16 L 12.267 14.804 L 14.574 16 L 14.133 13.467 L 16 11.674 L 13.421 11.304 Z M 1.067 15 L 1.067 1 L 8.533 1 L 8.533 5 L 12.8 5 L 12.8 8 L 13.867 8 L 13.867 4 L 9.6 0 L 0 0 L 0 16 L 7.467 16 L 7.467 15 L 1.067 15 Z" /></svg>
