<?xml version="1.0" encoding="utf-8"?>
<!-- Generator: Adobe Illustrator 23.0.6, SVG Export Plug-In . SVG Version: 6.00 Build 0)  -->
<svg version="1.1" id="Ebene_1" xmlns="http://www.w3.org/2000/svg" xmlns:xlink="http://www.w3.org/1999/xlink" x="0px" y="0px"
	 viewBox="0 0 16 16" enable-background="new 0 0 16 16" xml:space="preserve">
<path fill="#FFFFFF" d="M1,3v12h14V1H3v2H1z"/>
<path fill="#ACACAC" d="M3,1v14h12V1H3z M14,14H4V2h10V14z"/>
<polygon opacity="0.75" fill="#333333" enable-background="new    " points="2,14 2,4 3,4 3,3 1,3 1,15 3,15 3,14 "/>
<rect x="1" y="3" opacity="0.75" fill="#5BA34F" enable-background="new    " width="2" height="12"/>
<path opacity="0.75" fill="#5BA34F" d="M5,3h4v6H5V3z"/>
<rect x="10" y="8" opacity="0.25" fill="#333333" width="3" height="1"/>
<rect x="5" y="10" opacity="0.25" fill="#333333" width="8" height="1"/>
<rect x="5" y="12" opacity="0.25" fill="#333333" width="6" height="1"/>
<rect x="10" y="6" opacity="0.25" fill="#333333" width="3" height="1"/>
<rect x="10" y="3" fill="#333333" width="3" height="2"/>
</svg>
