<!-- Copyright © 2015 MODULUS Sp. z o. o. / FUTURAMO™ --><svg xmlns="http://www.w3.org/2000/svg" x="0px" y="0px" width="256px" height="256px" viewBox="0 0 64 64"><rect x="0" y="0" width="64" height="64" rx="0" ry="0" fill="#39b506"></rect><rect x="0.5" y="0.5" width="63" height="63" rx="0" ry="0" fill="#39b506"></rect><path transform="translate(16, 16)" fill="#ffffff" d="M26.083,16v2h-10v-2H26.083L26.083,16z M26.083,12h-10v2h10V12L26.083,12z M26.083,6h-22v4h22V6L26.083,6z  M14.083,20h-10v2h10V20L14.083,20z M14.083,16h-10v2h10V16L14.083,16z M14.083,12h-10v2h10V12L14.083,12z M26.083,20h-10v2h10V20 L26.083,20z M14.083,24h-10v2h10V24L14.083,24z M26.083,24h-10v2h10V24L26.083,24z M28.083,2h-26v28h26V2 M30.083,0v32h-30V0H30.083 L30.083,0z"></path></svg>