<svg xmlns="http://www.w3.org/2000/svg" xml:space="preserve" viewBox="0 0 64 64">
  <path fill="#5ba34f" d="M0 0h64v64H0z"/>
    <path fill="#fff" d="M49.5 29.3 44 27.7l-.5-1.3 2.8-5q.2-.5-.1-.8l-3-3q-.3-.3-.8-.1l-5 2.8-1.3-.5-1.6-5.5q-.1-.5-.6-.5h-4.2q-.5 0-.6.5l-1.6 5.5-1.3.5-5-2.8q-.5-.2-.8.1l-2.9 2.9q-.3.3-.1.8l2.8 5-.5 1.3-5.5 1.6q-.5.2-.5.6V34q0 .5.5.6l5.5 1.6.5 1.3-2.8 5q-.2.5.1.8l3 3q.3.3.8.1l5-2.8 1.3.5 1.6 5.5q.2.5.6.5H34q.5 0 .6-.5l1.6-5.5 1.3-.5 5 2.8q.5.2.8-.1l3-3q.3-.3.1-.8l-2.8-5 .5-1.3 5.5-1.6q.5-.1.5-.6v-4.2z"/>
    <g opacity=".8">
    <circle cx="32" cy="32" r="6.7" fill="#5ba34f"/>
        <path fill="#3f7437" d="M32 26.3c3.1 0 5.7 2.6 5.7 5.7s-2.6 5.7-5.7 5.7-5.7-2.6-5.7-5.7 2.6-5.7 5.7-5.7m0-2c-4.3 0-7.7 3.4-7.7 7.7s3.4 7.7 7.7 7.7 7.7-3.4 7.7-7.7-3.4-7.7-7.7-7.7"/>
  </g>
</svg>
