<svg xmlns="http://www.w3.org/2000/svg" width="32" height="32"><path fill="#39b506" d="M24 8H8V6h16v2zM6 14H4v2h2v-2zm-2 6h2v-2H4v2zm20-10H8v2h16v-2zM6 10H4v2h2v-2zm14 4H8v2h12v-2zM6 6H4v2h2V6zm2 14h10v-2H8v2zM0 0v32h13.999v-1.999H2v-28h24v10h2V0H0zm30 15.873l-1.732-1a3.971 3.971 0 0 0-3.035-.398 3.991 3.991 0 0 0-2.428 1.861l-2 3.465 1.732 1 2-3.465a1.996 1.996 0 0 1 1.215-.931 1.985 1.985 0 0 1 1.516.2L29 17.606a1.997 1.997 0 0 1 .732 2.729l-2 3.465 1.73.998 2-3.463A4 4 0 0 0 30 15.873m-2.998 5.193l-1.734-1-3 5.197 1.734 1 3-5.197zm-2.27 7.93a1.998 1.998 0 0 1-2.73.731l-1.734-1a2 2 0 0 1-.731-2.731l2-3.465-1.732-1-2 3.465a4.002 4.002 0 0 0 1.463 5.466l1.734 1a4 4 0 0 0 5.461-1.466l2-3.465-1.73-1-2.001 3.465zm-3.609-3.02c.024-.154.018-.118 0 0"/></svg>
