<?xml version="1.0" encoding="utf-8"?>
<!-- Generator: Adobe Illustrator 24.0.2, SVG Export Plug-In . SVG Version: 6.00 Build 0)  -->
<svg version="1.1" id="Ebene_1" xmlns="http://www.w3.org/2000/svg" xmlns:xlink="http://www.w3.org/1999/xlink" x="0px" y="0px"
	 viewBox="0 0 16 16" enable-background="new 0 0 16 16" xml:space="preserve">
<path fill="#5BA34F" d="M1,0v16h14V0L1,0z"/>
<polygon fill="#FFFFFF" points="4,13 4,3 14,3 14,13 "/>
<rect x="6" y="5" fill="#333333" width="8" height="2"/>
<rect x="6" y="8" fill="#5BA34F" width="1" height="1"/>
<rect x="8" y="8" fill="#B9B9B9" width="6" height="1"/>
<rect x="6" y="10" fill="#5BA34F" width="1" height="1"/>
<rect x="8" y="10" fill="#B9B9B9" width="6" height="1"/>
<path fill="#4A8741" d="M1,0v16h14V0l-5,0H1z M2,1l12,0l0,14H2V1z"/>
<polygon opacity="0.5" fill="#333333" enable-background="new    " points="4,14 4,13 14,13 14,14 "/>
</svg>
