<svg xmlns="http://www.w3.org/2000/svg" xml:space="preserve" viewBox="0 0 16 16">
  <circle cx="8" cy="8" r="8" fill="#5ba34f"/>
    <path fill="#bbe0ad" d="M15 7.4a7 7 0 0 0-3.6-5.5V2q-.6.1-1-.2-1.2-.3-2.1 0c-.3 0-1 .1-.7.7q.4.6 1.1.2.3-.5.7-.2v.3q0 .4-.6.4l-1 .1q-.9 0-1 .7 0 .8-.7.8-.5 0-.3.5.1.4.5.2c.8-.4 1.4-1.3 2.2-.2h.2c.2-.8.4-.4.6 0l.3.2c1-1 .8.5 1.2.8-.8-.2-1.6.6-2.3.1q-1.4-1.2-2.8.4-1.2 1-.9 2.3c.3 1 1.3 1 2.2.9.2-.1.8-.1.8 0-.2 1 .8 1.5.5 2.5-.3.8.1 1.8.8 2 .6.3 1.2-.4 1.5-1.1V13c.8-1 .7-2.4 1.6-3.4.3-.3 1.2-1.4.5-2.2 1.7-.5 1.1 1.2 1.5 2l.6-1.6zM5 2.2l.5-.8-1.9 1.1.2.2h.9l.2-.2zm-1.3 9.4q-.1-.1 0 0v-.3l-.1-.1-.2-.1L3 11h-.2q-1-.6-1.2-1.7l-.1-.6-.2-.3q-.2-.3 0-.9v-.2l.2-.2V7l.8-.9.1-.2.2-.4.1-.4v-.5l-.4-.7a7 7 0 0 0 1 9.4l.2-.3z"/>
    <path fill="#4a8741" d="M8 16A8 8 0 1 1 8 0a8 8 0 0 1 0 16M8 1a7 7 0 1 0 0 14A7 7 0 0 0 8 1"/>
</svg>
