<svg xmlns="http://www.w3.org/2000/svg" xml:space="preserve" viewBox="0 0 16 16">
  <path fill="#5ba34f" d="M1.5 14.5q.5-2.4 1-2.5l2.5-.9 1.1-.5.2-.1.1-.2q.2-.5.4-2.3v-.2l-.2-.1q-1-1.2-1.1-2.2v-2c0-1.1 1-2 2.1-2h.7a2 2 0 0 1 2.1 2v1.9q0 1-1.1 2.2V8q.2 1.8.4 2.2l.1.3.2.1 1 .4 2.5 1c.2.1.8.7 1 2.5z"/>
    <path fill="#3f7437" d="M8.4 2q1.5.2 1.6 1.5v1.9q0 1-.9 1.9l-.4.3V8q.2 1.9.4 2.4v.1l.2.5.5.2 1 .4q1 .5 2.4.9.3 0 .7 1.5H2.1q.4-1.4.7-1.5l2.4-.9 1-.4.5-.2.2-.4v-.1q.2-.5.4-2.5v-.4L7 7.3q-1-1-1-1.8v-2Q6.2 2.2 7.7 2zm0-1h-.7C6.3 1 5 2.1 5 3.5v1.9Q5 6.9 6.3 8q-.1 1.9-.4 2.2-1.4.7-3.6 1.4S1.1 12.3 1 15h14c-.1-2.8-1.3-3.4-1.3-3.4q-2.1-.7-3.5-1.4-.3-.4-.4-2.2A4 4 0 0 0 11 5.5v-2C11 2.1 9.8 1 8.4 1"/>
</svg>
