<svg xmlns="http://www.w3.org/2000/svg" xml:space="preserve" viewBox="0 0 16 16">
  <path fill="#5ba34f" d="M2 0v16h12V4l-4-4z"/>
    <path fill="#333" d="M5 14v-1h8v1z" opacity=".5"/>
    <path fill="#fff" d="M5 13V3h5v1h3v9z"/>
    <path fill="#333" d="M7 5h6v2H7z"/>
    <path fill="#b9b9b9" d="M7 8h6v1H7zm0 2h6v1H7z"/>
    <path fill="#fff" d="M10 4V0l4 4z" opacity=".3"/>
    <path d="M13 5v5L9 5z" opacity=".2"/>
    <path fill="#4a8741" d="M2 0v16h12V4l-4-4zm1 1h6v4h4v10H3zm7 .4L12.6 4H10z"/>
</svg>
