<?xml version="1.0" encoding="utf-8"?>
<!-- Generator: Adobe Illustrator 23.0.6, SVG Export Plug-In . SVG Version: 6.00 Build 0)  -->
<svg version="1.1" id="Ebene_1" xmlns="http://www.w3.org/2000/svg" xmlns:xlink="http://www.w3.org/1999/xlink" x="0px" y="0px"
	 viewBox="0 0 16 16" enable-background="new 0 0 16 16" xml:space="preserve">
<path fill="#5BA34F" d="M2,0v16h12V4l-4-4H2z"/>
<polygon opacity="0.5" fill="#333333" points="5,14 5,13 13,13 13,14 "/>
<polygon fill="#FFFFFF" points="5,13 5,3 10,3 10,4 13,4 13,13 "/>
<rect x="7" y="5" fill="#333333" width="6" height="2"/>
<rect x="7" y="8" fill="#B9B9B9" width="6" height="1"/>
<rect x="7" y="10" fill="#B9B9B9" width="6" height="1"/>
<path opacity="0.25" fill="#FFFFFF" enable-background="new    " d="M10,4V0l4,4H10z"/>
<path opacity="0.2" enable-background="new    " d="M13,5v5L9,5H13z"/>
<path fill="#4A8741" d="M2,0v16h12V4l0,0l0,0l-4-4l0,0l0,0H2z M3,1h6v4h4v10H3V1z M10,1.4L12.6,4H10V1.4z"/>
</svg>
