<?xml version="1.0" encoding="utf-8"?>
<!-- Generator: Adobe Illustrator 23.0.6, SVG Export Plug-In . SVG Version: 6.00 Build 0)  -->
<svg version="1.1" id="Ebene_1" xmlns="http://www.w3.org/2000/svg" xmlns:xlink="http://www.w3.org/1999/xlink" x="0px" y="0px"
	 viewBox="0 0 16 16" enable-background="new 0 0 16 16" xml:space="preserve">
<g>
	<path fill="#5BA34F" d="M1.5,14.5c0.2-1.7,0.8-2.3,1-2.5c1-0.3,1.8-0.6,2.5-0.9c0.4-0.2,0.7-0.3,1.1-0.5l0.2-0.1l0.1-0.2
		C6.5,9.9,6.7,9.3,6.8,8l0-0.2L6.6,7.7C6,7,5.5,6.1,5.5,5.5V3.5c0-1.1,1-2,2.1-2h0.7c1.2,0,2.1,0.9,2.1,2v1.9c0,0.6-0.4,1.5-1.1,2.2
		L9.3,7.8l0,0.2c0.1,1.2,0.3,1.9,0.4,2.2l0.1,0.3l0.2,0.1c0.3,0.1,0.7,0.3,1,0.4c0.7,0.3,1.5,0.7,2.5,1c0.2,0.1,0.8,0.7,1,2.5H1.5z"
		/>
	<path fill="#3F7437" d="M8.4,2C9.3,2,10,2.7,10,3.5v1.9C10,6,9.6,6.7,9.1,7.3L8.7,7.6l0,0.4c0.1,1.3,0.3,2,0.4,2.4l0,0.1L9.3,11
		l0.5,0.2c0.3,0.1,0.7,0.3,1,0.4c0.7,0.3,1.5,0.7,2.4,0.9c0.1,0.1,0.5,0.5,0.7,1.5H8H2.1c0.2-1,0.5-1.4,0.7-1.5
		c1-0.3,1.7-0.6,2.4-0.9c0.4-0.2,0.7-0.3,1-0.4L6.7,11l0.2-0.4l0-0.1C7,10.1,7.2,9.4,7.3,8l0-0.4L7,7.3C6.3,6.7,6,5.9,6,5.5V3.5
		C6,2.7,6.8,2,7.7,2H8.4 M8.4,1H7.7C6.3,1,5,2.1,5,3.5v1.9C5,6.3,5.5,7.3,6.3,8c0,1.3-0.3,1.9-0.4,2.2c-1,0.4-2.1,1-3.6,1.4
		c0,0-1.2,0.7-1.3,3.4h7h7c-0.1-2.8-1.3-3.4-1.3-3.4c-1.5-0.4-2.5-1-3.5-1.4C10.1,9.9,9.8,9.3,9.8,8C10.5,7.3,11,6.3,11,5.5V3.5
		C11,2.1,9.8,1,8.4,1L8.4,1z"/>
</g>
</svg>
